<?xml version="1.0" standalone="no"?>
<!DOCTYPE svg PUBLIC "-//W3C//DTD SVG 20010904//EN"
 "http://www.w3.org/TR/2001/REC-SVG-20010904/DTD/svg10.dtd">
<svg version="1.0" xmlns="http://www.w3.org/2000/svg"
 width="1042.000000pt" height="1042.000000pt" viewBox="0 0 1042.000000 1042.000000"
 preserveAspectRatio="xMidYMid meet">
<metadata>
Created by potrace 1.11, written by Peter Selinger 2001-2013
</metadata>
<g transform="translate(0.000000,1042.000000) scale(0.100000,-0.100000)"
fill="#000000" stroke="none">
<path d="M4916 7603 c-2 -2 -32 -5 -206 -19 -30 -2 -68 -6 -85 -8 -16 -3 -50
-7 -75 -9 -74 -8 -143 -18 -180 -27 -19 -5 -52 -11 -74 -14 -21 -4 -88 -18
-150 -31 -61 -14 -120 -27 -131 -30 -11 -2 -47 -12 -80 -21 -33 -9 -67 -17
-75 -19 -8 -2 -80 -25 -160 -51 -80 -26 -147 -48 -150 -49 -3 -1 -18 -7 -35
-14 -16 -7 -57 -23 -91 -36 -33 -12 -86 -34 -117 -49 -32 -14 -64 -26 -72 -26
-8 0 -15 -5 -15 -12 0 -6 -3 -9 -6 -6 -3 4 -41 -11 -85 -33 -43 -21 -83 -39
-88 -39 -5 0 -11 -3 -13 -7 -1 -5 -46 -30 -98 -57 -52 -26 -153 -84 -225 -128
-71 -43 -139 -84 -150 -91 -11 -7 -22 -14 -25 -17 -10 -10 -69 -50 -74 -50 -3
0 -14 -7 -23 -15 -10 -8 -68 -52 -129 -97 -61 -46 -127 -96 -147 -113 -19 -16
-54 -46 -78 -65 -75 -62 -161 -142 -289 -270 -137 -137 -224 -233 -330 -363
-8 -10 -25 -31 -38 -45 -49 -59 -209 -285 -283 -402 -43 -69 -82 -129 -86
-135 -5 -5 -15 -23 -23 -40 -8 -16 -29 -53 -46 -81 -59 -100 -177 -346 -240
-504 -19 -47 -40 -96 -46 -110 -6 -14 -12 -29 -14 -35 -1 -5 -27 -84 -58 -175
-30 -91 -57 -177 -60 -190 -2 -14 -9 -38 -15 -54 -7 -16 -14 -41 -16 -55 -2
-14 -6 -37 -10 -51 -4 -14 -8 -34 -10 -45 -2 -11 -8 -35 -14 -52 -5 -18 -8
-33 -6 -33 3 0 0 -12 -5 -26 -6 -14 -12 -45 -15 -70 -2 -25 -6 -48 -9 -52 -4
-7 -11 -45 -21 -119 -2 -15 -6 -41 -9 -58 -3 -16 -8 -52 -11 -80 -3 -27 -8
-68 -11 -90 -3 -22 -7 -65 -9 -95 -2 -30 -4 -55 -5 -55 -1 0 -4 -83 -7 -185
l-5 -186 4792 0 4792 0 -6 191 c-3 104 -8 204 -10 220 -3 17 -8 57 -10 90 -5
57 -12 119 -20 175 -2 14 -7 48 -11 75 -6 46 -59 314 -71 360 -3 11 -7 27 -9
35 -2 8 -4 15 -5 15 -1 0 -3 9 -5 20 -13 78 -131 453 -169 540 -8 17 -26 62
-41 100 -44 112 -177 390 -243 506 -83 146 -197 327 -286 454 -33 47 -159 209
-166 215 -4 3 -11 12 -16 21 -9 17 -82 103 -169 199 -105 116 -326 330 -446
431 -123 105 -362 289 -374 289 -4 0 -13 6 -21 14 -14 15 -216 145 -290 187
-103 59 -177 98 -194 104 -11 4 -20 11 -20 16 0 5 -5 9 -12 9 -6 0 -41 15 -77
34 -88 45 -307 141 -406 178 -113 42 -375 129 -405 134 -14 3 -36 9 -50 13
-14 5 -38 13 -55 17 -16 4 -32 8 -35 9 -3 1 -30 7 -60 13 -30 7 -66 15 -80 18
-40 9 -222 44 -260 50 -19 3 -46 7 -60 10 -14 2 -50 7 -80 10 -30 3 -68 8 -85
11 -16 2 -52 6 -80 8 -27 2 -86 7 -130 11 -70 6 -593 12 -599 7z"/>
</g>
</svg>
